<?xml version="1.0" encoding="UTF-8" standalone="no"?>
<!-- Created with Inkscape (http://www.inkscape.org/) -->

<svg
   viewBox="0 0 264.58335 259.68032"
   version="1.1"
   id="svg3217"
   inkscape:version="1.4 (86a8ad7, 2024-10-11)"
   sodipodi:docname="ITZY.svg"
   xmlns:inkscape="http://www.inkscape.org/namespaces/inkscape"
   xmlns:sodipodi="http://sodipodi.sourceforge.net/DTD/sodipodi-0.dtd"
   xmlns="http://www.w3.org/2000/svg"
   xmlns:svg="http://www.w3.org/2000/svg">
  <sodipodi:namedview
     id="namedview3219"
     pagecolor="#505050"
     bordercolor="#eeeeee"
     borderopacity="0"
     inkscape:showpageshadow="true"
     inkscape:pageopacity="0"
     inkscape:pagecheckerboard="false"
     inkscape:deskcolor="#d1d1d1"
     inkscape:document-units="mm"
     showgrid="false"
     inkscape:zoom="0.55861435"
     inkscape:cx="202.28625"
     inkscape:cy="-101.14312"
     inkscape:window-width="1920"
     inkscape:window-height="991"
     inkscape:window-x="-9"
     inkscape:window-y="-9"
     inkscape:window-maximized="1"
     inkscape:current-layer="layer1" />
  <defs
     id="defs3214" />
  <g
     inkscape:label="Layer 1"
     inkscape:groupmode="layer"
     id="layer1"
     transform="translate(-6.2145736,-116.33463)">
    <path
       id="path838"
       clip-path="none"
       style="fill:#000000 icc-color(sRGB-IEC61966-2, 0.1, 0, 0, 0);fill-opacity:1;fill-rule:nonzero;stroke:none;stroke-width:5.40911"
       d="M 6.2145736 116.33463 L 6.2145736 158.06119 L 25.255589 139.02018 L 25.255589 116.33463 L 6.2145736 116.33463 z M 48.857152 116.33463 L 48.857152 257.80924 C 48.857152 286.92104 66.701813 305.00455 95.407933 305.00455 L 98.177464 305.00455 L 98.177464 286.34244 L 96.111058 286.34244 C 77.920252 286.34244 67.892308 276.09826 67.892308 257.49088 L 67.892308 175.15299 L 98.177464 175.15299 L 98.177464 157.0651 L 67.892308 157.0651 L 67.892308 116.33463 L 48.857152 116.33463 z M 112.9177 156.80143 L 112.9177 175.40299 L 162.69309 175.32486 L 110.197 286.4401 L 110.197 304.92838 L 206.33371 304.92838 L 209.8552 286.26041 L 129.09153 286.33854 L 181.59348 175.30533 L 181.56614 156.80143 L 112.9177 156.80143 z M 192.45285 156.80533 L 222.6091 283.25455 L 201.3884 376.01432 L 217.62668 376.01432 L 270.79856 156.80533 L 253.46653 156.80533 L 232.01926 250.20963 L 210.30246 156.80533 L 192.45285 156.80533 z M 25.255589 165.95377 L 6.2145736 184.98307 L 6.2145736 304.9401 L 25.255589 304.9401 L 25.255589 165.95377 z " />
  </g>
</svg>
